<svg xmlns="http://www.w3.org/2000/svg" height="20" width="20"><path d="m10 15.979-3.417 2.042q-.416.229-.812.198-.396-.031-.688-.261-.312-.208-.437-.593-.125-.386-.042-.803l.917-3.812-3.042-2.604q-.333-.271-.417-.656-.083-.386 0-.761.105-.354.428-.614.322-.261.76-.282l3.958-.354 1.563-3.646q.187-.416.51-.614T10 3.021q.396 0 .719.198.323.198.51.614L12.792 7.5l3.958.333q.438.021.76.292.323.271.428.625.083.375-.011.75t-.427.646l-3.021 2.604.917 3.812q.083.417-.042.803-.125.385-.437.593-.292.23-.688.261-.396.031-.812-.198Z"/></svg>